<svg xmlns="http://www.w3.org/2000/svg" viewBox="0 0 63.6 38.14"><title>logo</title><g id="Layer_2" data-name="Layer 2"><g id="Layer_1-2" data-name="Layer 1"><path d="M56.41,4.55,62.1,8.68l1.5,7.26-5,8.46-1.92-.82-2.1,4.2-2.51-.93-2.86,1.89L48.61,23l-5.82,12.3-1.28-.78,1.64,3.67h-6l-.28-2.82L34,27.85l2.42,1s.78-11,.78-10.6S35,26.5,35,26.5l-2.92-1,.5,3.06L21.81,25.5l.49-3.05,1.78-1.71-3.2,1.56L19.6,26.36l-6.33,4.55,1.14,4.41,3.06,2.82H11.28l-.71-2L8.79,28.85l2.42-4.77L10.5,17,5.44,23l.36,4.13L0,31V24.44l3.81-1.92,5.69-8.2L28.44,4.56l-.34,5L37.48,0,48.14,2.64,56,.82l-6.4,5.62,1.86,3.07,2.43,1.29,1.56-2.68L54.24,6.33,56.48,2l-.07,2.56Z" fill="#fff" fill-rule="evenodd"/></g></g></svg>